Open Sans-Light.ufo
<glyph name="F" format="1">
  <advance width="1028"/>
  <unicode hex="0046"/>
  <outline>
    <contour>
      <point x="309" y="653" type="line"/>
      <point x="969" y="653" type="line"/>
      <point x="969" y="748" type="line"/>
      <point x="309" y="748" type="line"/>
      <point x="309" y="1368" type="line"/>
      <point x="1008" y="1368" type="line"/>
      <point x="1008" y="1462" type="line"/>
      <point x="207" y="1462" type="line"/>
      <point x="207" y="0" type="line"/>
      <point x="309" y="0" type="line"/>
    </contour>
    <contour>
      <point x="514" y="0" type="move" name="bottom"/>
    </contour>
    <contour>
      <point x="514" y="1462" type="move" name="top"/>
    </contour>
  </outline>
</glyph>
<glyph name="T" format="1">
  <advance width="1073"/>
  <unicode hex="0054"/>
  <outline>
    <contour>
      <point x="588" y="1366" type="line"/>
      <point x="1063" y="1366" type="line"/>
      <point x="1063" y="1462" type="line"/>
      <point x="10" y="1462" type="line"/>
      <point x="10" y="1366" type="line"/>
      <point x="485" y="1366" type="line"/>
      <point x="485" y="0" type="line"/>
      <point x="588" y="0" type="line"/>
    </contour>
    <contour>
      <point x="515" y="0" type="move" name="bottom"/>
    </contour>
    <contour>
      <point x="537" y="731" type="move" name="center"/>
    </contour>
    <contour>
      <point x="537" y="1462" type="move" name="top"/>
    </contour>
  </outline>
</glyph>
<glyph name="bar" format="1">
  <advance width="1108"/>
  <unicode hex="007C"/>
  <note>
    bar
  </note>
  <outline>
    <contour>
      <point x="508" y="-506" type="line"/>
      <point x="600" y="-506" type="line"/>
      <point x="600" y="1561" type="line"/>
      <point x="508" y="1561" type="line"/>
    </contour>
  </outline>
</glyph>
<glyph name="hungarumlaut" format="1">
  <advance width="1167"/>
  <unicode hex="02DD"/>
  <note>
    hungarumlaut
  </note>
  <outline>
    <component base="hungarumlautcomb" xOffset="-33"/>
    <contour>
      <point x="479" y="1124" type="move" name="_top"/>
    </contour>
  </outline>
</glyph>
<glyph name="acutecomb" format="1">
  <advance width="9"/>
  <unicode hex="0301"/>
  <note>
    acutecomb
  </note>
  <outline>
    <contour>
      <point x="-673" y="1241" type="line"/>
      <point x="-603" y="1241" type="line"/>
      <point x="-464" y="1357"/>
      <point x="-338" y="1483"/>
      <point x="-290" y="1552" type="curve"/>
      <point x="-290" y="1569" type="line"/>
      <point x="-431" y="1569" type="line"/>
      <point x="-466" y="1505"/>
      <point x="-576" y="1362"/>
      <point x="-673" y="1257" type="curve"/>
    </contour>
    <contour>
      <point x="-582" y="1127" type="move" name="_top"/>
    </contour>
    <contour>
      <point x="-482" y="1569" type="move" name="top"/>
    </contour>
  </outline>
</glyph>
<glyph name="overlinecomb" format="1">
  <advance width="0"/>
  <unicode hex="0305"/>
  <outline>
    <contour>
      <point x="-426" y="1579" type="line"/>
      <point x="428" y="1579" type="line"/>
      <point x="428" y="1724" type="line"/>
      <point x="-426" y="1724" type="line"/>
    </contour>
    <contour>
      <point x="2" y="1303" type="move" name="_top"/>
    </contour>
    <contour>
      <point x="2" y="1724" type="move" name="top"/>
    </contour>
  </outline>
</glyph>
<glyph name="dotaccentcomb" format="1">
  <advance width="0"/>
  <unicode hex="0307"/>
  <note>
    dotaccent
  </note>
  <outline>
    <contour>
      <point x="-251" y="1292" type="curve" smooth="yes"/>
      <point x="-210" y="1292"/>
      <point x="-186" y="1329"/>
      <point x="-186" y="1389" type="curve" smooth="yes"/>
      <point x="-186" y="1450"/>
      <point x="-210" y="1485"/>
      <point x="-251" y="1485" type="curve" smooth="yes"/>
      <point x="-294" y="1485"/>
      <point x="-315" y="1453"/>
      <point x="-315" y="1389" type="curve" smooth="yes"/>
      <point x="-315" y="1324"/>
      <point x="-294" y="1292"/>
    </contour>
    <contour>
      <point x="-250" y="1087" type="move" name="_top"/>
    </contour>
    <contour>
      <point x="-250" y="1485" type="move" name="top"/>
    </contour>
  </outline>
</glyph>
<glyph name="commaturnedabovecomb" format="1">
  <advance width="0"/>
  <unicode hex="0312"/>
  <outline>
    <contour>
      <point x="-277" y="1241" type="line"/>
      <point x="-165" y="1241" type="line"/>
      <point x="-157" y="1309"/>
      <point x="-115" y="1475"/>
      <point x="-79" y="1552" type="curve"/>
      <point x="-79" y="1569" type="line"/>
      <point x="-132" y="1569" type="line"/>
      <point x="-188" y="1488"/>
      <point x="-250" y="1358"/>
      <point x="-277" y="1255" type="curve"/>
    </contour>
    <contour>
      <point x="-238" y="1087" type="move" name="_top"/>
    </contour>
    <contour>
      <point x="-178" y="1569" type="move" name="top"/>
    </contour>
  </outline>
</glyph>
<glyph name="dotbelowcomb" format="1">
  <advance width="0"/>
  <unicode hex="0323"/>
  <note>
    dotbelowcomb
  </note>
  <outline>
    <contour>
      <point x="-663" y="-324" type="curve" smooth="yes"/>
      <point x="-622" y="-324"/>
      <point x="-597" y="-287"/>
      <point x="-597" y="-227" type="curve" smooth="yes"/>
      <point x="-597" y="-166"/>
      <point x="-622" y="-131"/>
      <point x="-663" y="-131" type="curve" smooth="yes"/>
      <point x="-706" y="-131"/>
      <point x="-727" y="-163"/>
      <point x="-727" y="-227" type="curve" smooth="yes"/>
      <point x="-727" y="-292"/>
      <point x="-706" y="-324"/>
    </contour>
    <contour>
      <point x="-662" y="0" type="move" name="_bottom"/>
    </contour>
    <contour>
      <point x="-662" y="-324" type="move" name="bottom"/>
    </contour>
  </outline>
</glyph>
<glyph name="Alpha" format="1">
  <advance width="1229"/>
  <unicode hex="0391"/>
  <note>
    Alpha
  </note>
  <outline>
    <component base="A"/>
    <contour>
      <point x="420" y="1462" type="move" name="topleft"/>
    </contour>
  </outline>
</glyph>
<glyph name="Omicron" format="1">
  <advance width="1565"/>
  <unicode hex="039F"/>
  <note>
    Omicron
  </note>
  <outline>
    <component base="O"/>
    <contour>
      <point x="20" y="1462" type="move" name="topleft"/>
    </contour>
  </outline>
</glyph>
<glyph name="Ge-cy" format="1">
  <advance width="1028"/>
  <unicode hex="0413"/>
  <note>
    afii10020
  </note>
  <outline>
    <contour>
      <point x="207" y="0" type="line"/>
      <point x="309" y="0" type="line"/>
      <point x="309" y="1368" type="line"/>
      <point x="1008" y="1368" type="line"/>
      <point x="1008" y="1462" type="line"/>
      <point x="207" y="1462" type="line"/>
    </contour>
    <contour>
      <point x="1008" y="0" type="move" name="bottomright"/>
    </contour>
    <contour>
      <point x="714" y="1462" type="move" name="top"/>
    </contour>
  </outline>
</glyph>
<glyph name="Ie-cy" format="1">
  <advance width="1130"/>
  <unicode hex="0415"/>
  <note>
    afii10022
  </note>
  <outline>
    <component base="E"/>
    <contour>
      <point x="605" y="1462" type="move" name="top"/>
    </contour>
  </outline>
</glyph>
<glyph name="i-cy" format="1">
  <advance width="463"/>
  <unicode hex="0456"/>
  <note>
    afii10103
  </note>
  <outline>
    <component base="i"/>
    <contour>
      <point x="232" y="1087" type="move" name="top"/>
    </contour>
  </outline>
</glyph>
<glyph name="Enghe-cy" format="1">
  <advance width="1602"/>
  <unicode hex="04A4"/>
  <note>
    uni04A4
  </note>
  <outline>
    <contour>
      <point x="207" y="0" type="line"/>
      <point x="309" y="0" type="line"/>
      <point x="309" y="719" type="line"/>
      <point x="1163" y="719" type="line"/>
      <point x="1163" y="0" type="line"/>
      <point x="1266" y="0" type="line"/>
      <point x="1266" y="1366" type="line"/>
      <point x="1591" y="1366" type="line"/>
      <point x="1591" y="1462" type="line"/>
      <point x="1163" y="1462" type="line"/>
      <point x="1163" y="813" type="line"/>
      <point x="309" y="813" type="line"/>
      <point x="309" y="1462" type="line"/>
      <point x="207" y="1462" type="line"/>
    </contour>
  </outline>
</glyph>
<glyph name="obarred-cy" format="1">
  <advance width="1166"/>
  <unicode hex="04E9"/>
  <note>
    uni04E9
  </note>
  <outline>
    <component base="fita-cy"/>
    <contour>
      <point x="583" y="1087" type="move" name="top"/>
    </contour>
  </outline>
</glyph>
<glyph name="dagesh-hb" format="1">
  <advance width="16"/>
  <unicode hex="05BC"/>
  <note>
    afii57807
  </note>
  <outline>
    <contour>
      <point x="7" y="489" type="curve" smooth="yes"/>
      <point x="50" y="489"/>
      <point x="71" y="514"/>
      <point x="71" y="564" type="curve" smooth="yes"/>
      <point x="71" y="614"/>
      <point x="50" y="639"/>
      <point x="7" y="639" type="curve" smooth="yes"/>
      <point x="-34" y="639"/>
      <point x="-54" y="614"/>
      <point x="-54" y="564" type="curve" smooth="yes"/>
      <point x="-54" y="514"/>
      <point x="-34" y="489"/>
    </contour>
    <contour>
      <point x="9" y="564" type="move" name="_center"/>
    </contour>
  </outline>
</glyph>
<glyph name="sindot-hb" format="1">
  <advance width="15"/>
  <unicode hex="05C2"/>
  <note>
    afii57803
  </note>
  <outline>
    <contour>
      <point x="6" y="1210" type="curve" smooth="yes"/>
      <point x="49" y="1210"/>
      <point x="70" y="1235"/>
      <point x="70" y="1285" type="curve" smooth="yes"/>
      <point x="70" y="1335"/>
      <point x="49" y="1360"/>
      <point x="6" y="1360" type="curve" smooth="yes"/>
      <point x="-35" y="1360"/>
      <point x="-55" y="1335"/>
      <point x="-55" y="1285" type="curve" smooth="yes"/>
      <point x="-55" y="1235"/>
      <point x="-35" y="1210"/>
    </contour>
    <contour>
      <point x="90" y="1190" type="move" name="_topleft"/>
    </contour>
  </outline>
</glyph>
<glyph name="dalet-hb" format="1">
  <advance width="989"/>
  <unicode hex="05D3"/>
  <note>
    afii57667
  </note>
  <outline>
    <contour>
      <point x="633" y="0" type="line"/>
      <point x="735" y="0" type="line"/>
      <point x="735" y="928" type="line" smooth="yes"/>
      <point x="735" y="997"/>
      <point x="750" y="1055"/>
      <point x="780" y="1100" type="curve" smooth="yes"/>
      <point x="817" y="1155"/>
      <point x="880" y="1188"/>
      <point x="949" y="1213" type="curve"/>
      <point x="949" y="1290" type="line"/>
      <point x="45" y="1290" type="line"/>
      <point x="45" y="1202" type="line"/>
      <point x="774" y="1202" type="line"/>
      <point x="738" y="1183"/>
      <point x="716" y="1161"/>
      <point x="683" y="1116" type="curve" smooth="yes"/>
      <point x="655" y="1077"/>
      <point x="633" y="1007"/>
      <point x="633" y="928" type="curve" smooth="yes"/>
    </contour>
    <contour>
      <point x="495" y="0" type="move" name="bottom"/>
    </contour>
    <contour>
      <point x="20" y="0" type="move" name="bottomleft"/>
    </contour>
    <contour>
      <point x="368" y="665" type="move" name="center"/>
    </contour>
    <contour>
      <point x="495" y="1087" type="move" name="top"/>
    </contour>
    <contour>
      <point x="20" y="1087" type="move" name="topleft"/>
    </contour>
  </outline>
</glyph>
<glyph name="yod-hb" format="1">
  <advance width="442"/>
  <unicode hex="05D9"/>
  <note>
    afii57673
  </note>
  <outline>
    <contour>
      <point x="170" y="482" type="line"/>
      <point x="179" y="482" type="line"/>
      <point x="272" y="596" type="line"/>
      <point x="272" y="1290" type="line"/>
      <point x="170" y="1290" type="line"/>
    </contour>
    <contour>
      <point x="221" y="0" type="move" name="bottom"/>
    </contour>
    <contour>
      <point x="20" y="0" type="move" name="bottomleft"/>
    </contour>
    <contour>
      <point x="13" y="899" type="move" name="center"/>
    </contour>
    <contour>
      <point x="221" y="1087" type="move" name="top"/>
    </contour>
    <contour>
      <point x="20" y="1087" type="move" name="topleft"/>
    </contour>
  </outline>
</glyph>
<glyph name="lamed-hb" format="1">
  <advance width="930"/>
  <unicode hex="05DC"/>
  <note>
    afii57676
  </note>
  <outline>
    <contour>
      <point x="461" y="0" type="line"/>
      <point x="565" y="0" type="line"/>
      <point x="656" y="507" type="line"/>
      <point x="848" y="1182" type="line"/>
      <point x="848" y="1296" type="line"/>
      <point x="147" y="1296" type="line"/>
      <point x="147" y="1569" type="line"/>
      <point x="45" y="1569" type="line"/>
      <point x="45" y="1200" type="line"/>
      <point x="753" y="1200" type="line"/>
      <point x="550" y="494" type="line"/>
    </contour>
    <contour>
      <point x="465" y="0" type="move" name="bottom"/>
    </contour>
    <contour>
      <point x="20" y="0" type="move" name="bottomleft"/>
    </contour>
    <contour>
      <point x="318" y="665" type="move" name="center"/>
    </contour>
    <contour>
      <point x="465" y="1087" type="move" name="top"/>
    </contour>
    <contour>
      <point x="20" y="1087" type="move" name="topleft"/>
    </contour>
  </outline>
</glyph>
<glyph name="underscoredbl" format="1">
  <advance width="842"/>
  <unicode hex="2017"/>
  <note>
    underscoredbl
  </note>
  <outline>
    <contour>
      <point x="-4" y="-127" type="line"/>
      <point x="846" y="-127" type="line"/>
      <point x="846" y="-45" type="line"/>
      <point x="-4" y="-45" type="line"/>
    </contour>
    <contour>
      <point x="-4" y="-404" type="line"/>
      <point x="846" y="-404" type="line"/>
      <point x="846" y="-322" type="line"/>
      <point x="-4" y="-322" type="line"/>
    </contour>
  </outline>
</glyph>
<glyph name="divisionslash" format="1">
  <advance width="825"/>
  <unicode hex="2215"/>
  <note>
    divisionslash
  </note>
  <outline>
    <contour>
      <point x="104" y="-248" type="line"/>
      <point x="250" y="-248" type="line"/>
      <point x="721" y="1556" type="line"/>
      <point x="575" y="1556" type="line"/>
    </contour>
  </outline>
</glyph>
<glyph name="bowtieWithLeftHalfBlack" format="1">
  <advance width="1513"/>
  <unicode hex="29D1"/>
  <note>
    bowtieWithLeftHalfBlack
  </note>
  <outline>
    <contour>
      <point x="104" y="-35" type="line"/>
      <point x="756" y="555" type="line"/>
      <point x="1409" y="-35" type="line"/>
      <point x="1409" y="1317" type="line"/>
      <point x="756" y="725" type="line"/>
      <point x="104" y="1317" type="line"/>
    </contour>
    <contour>
      <point x="1264" y="295" type="line"/>
      <point x="885" y="641" type="line"/>
      <point x="1264" y="987" type="line"/>
    </contour>
  </outline>
</glyph>
<glyph name="u1D5D8" format="1">
  <advance width="1147"/>
  <unicode hex="1D5D8"/>
  <outline>
    <contour>
      <point x="184" y="0" type="line"/>
      <point x="1026" y="0" type="line"/>
      <point x="1026" y="256" type="line"/>
      <point x="494" y="256" type="line"/>
      <point x="494" y="633" type="line"/>
      <point x="989" y="633" type="line"/>
      <point x="989" y="887" type="line"/>
      <point x="494" y="887" type="line"/>
      <point x="494" y="1208" type="line"/>
      <point x="1026" y="1208" type="line"/>
      <point x="1026" y="1462" type="line"/>
      <point x="184" y="1462" type="line"/>
    </contour>
  </outline>
</glyph>
